<svg width="784" height="246" viewBox="0 0 784 246" fill="none" xmlns="http://www.w3.org/2000/svg">
<g clip-path="url(#clip0_124_93)">
<path d="M769.8 245H14.4002C6.8002 245 0.700195 238.9 0.700195 231.3V14.7C0.700195 7.1 6.8002 1 14.4002 1H769.8C777.4 1 783.5 7.1 783.5 14.7V231.3C783.5 238.8 777.3 245 769.8 245Z" fill="#1A1919"/>
<path d="M108.8 81.8001C99.7998 81.9001 90.7998 82.0001 81.7998 82.1001C77.6998 82.1001 73.4998 82.2001 69.3998 82.1001C66.7998 82.0001 64.5998 80.8001 62.6998 78.9001C55.1998 71.3001 47.6998 63.7001 40.1998 56.1001C38.6998 54.6001 36.9998 53.2001 35.5998 51.6001C32.4998 48.2001 32.5998 44.9001 35.7998 41.7001C38.7998 38.7001 41.8998 35.8001 44.8998 32.9001C45.4998 32.3001 46.0998 31.8001 46.4998 31.2001C49.8998 26.8001 54.4998 26.4001 58.5998 30.2001C60.1998 31.7001 61.7998 33.3001 63.4998 34.7001C64.3998 35.4001 65.6998 36.0001 66.8998 36.0001C72.9998 36.1001 79.1998 35.9001 85.2998 35.9001C90.3998 35.9001 95.4998 36.1001 100.6 36.1001C114.9 36.1001 129.2 36.0001 143.5 35.9001C148.4 35.9001 152.4 37.6001 155.8 41.2001C163.5 49.3001 171.4 57.2001 179.3 65.1001C183.3 69.0001 183.9 76.9001 178.1 81.0001C174.4 83.6001 168.8 83.3001 165.6 80.0001C163.1 77.4001 160.7 74.8 158.1 72.2001C153.1 67.1001 148 62.0001 142.8 57.0001C141.9 56.2001 140.4 55.7001 139.2 55.7001C134 55.7001 128.8 55.9001 123.7 56.0001C118 56.0001 112.2 55.8001 106.5 55.8001C103.6 55.8001 100.8 55.9001 97.8998 56.1001C94.2998 56.4001 91.8998 59.7001 93.4998 62.3001C93.8998 63.0001 94.7998 63.7001 95.4998 63.8001C98.9998 64.1001 102.5 64.3001 106 64.3001C112.8 64.3001 119.5 64.3 126.3 64.2001C127.4 64.2001 128.5 64.0001 129.6 63.9001C133.5 63.8001 137.6 66.8001 139 70.6001C140.1 73.7001 138.7 78.2001 135.6 80.3001C134.3 81.2001 132.7 81.8001 131.2 81.9001C123.6 81.7001 116.2 81.9001 108.8 81.8001Z" fill="#EA9E4A"/>
<path d="M90.2004 145.1C92.4004 142.2 97.3004 138.6 97.3004 136.1C97.3004 127.6 97.2004 112.2 97.2004 104.2C97.2004 100.9 97.1004 97.7 97.2004 94.4C97.2004 93.7 98.0004 92.4 98.5004 92.4C101.4 92.2 121.2 92.2 124.1 92.2C125.6 92.2 126.3 92.9 126.2 94.6C126.1 104.7 126.1 114.7 126.1 124.8C126.1 128.3 126.1 131.8 126 135.3C126 136.8 126.5 137.5 127.8 138.2C135.2 142 141.4 147.3 145.6 154.4C150.7 163 150.5 172.2 147.4 181.4C144.3 190.6 137.8 196.6 129.5 201C128.8 201.4 127.9 201.5 126.8 201.9C126.7 200.6 126.6 199.7 126.6 198.8C126.6 190.2 126.7 181.6 126.7 173C126.7 169.1 124.7 166.9 120.8 166.8C114.7 166.7 108.5 166.6 102.4 166.6C99.8004 166.6 98.5004 168 98.5004 170.6C98.6004 179.7 98.5004 188.7 98.5004 197.8C98.5004 198.2 98.5004 198.6 98.4004 199C98.1004 201.7 97.4004 202.2 95.1004 200.8C87.8004 196.3 82.5004 190.1 79.8004 181.8C77.4004 174.1 77.5004 166.6 80.5004 158.9C82.8004 153.5 86.1004 149.1 90.2004 145.1Z" fill="#EA9E4A"/>
<path d="M186.6 114.8C188.3 109.3 190.8 104.5 194.2 100.3C197.5 96.1 201.7 92.7 206.5 90.2C211.4 87.7 217 86.4 223.5 86.4C229.8 86.4 235.5 87.7 240.3 90.2C245.2 92.7 249.3 96.1 252.6 100.3C255.9 104.5 258.5 109.3 260.2 114.8C261.9 120.3 262.8 126 262.8 132.1C262.8 138.1 261.9 143.9 260.2 149.4C258.5 154.9 256 159.7 252.6 163.9C249.3 168.1 245.1 171.4 240.3 173.9C235.4 176.4 229.8 177.6 223.3 177.6C217 177.6 211.3 176.4 206.5 173.9C201.6 171.4 197.5 168.1 194.2 163.9C190.9 159.7 188.3 154.9 186.6 149.4C184.9 143.9 184 138.2 184 132.1C184 126 184.9 120.3 186.6 114.8ZM189.7 148C191.2 153.1 193.5 157.6 196.6 161.5C199.7 165.4 203.4 168.5 207.9 170.9C212.4 173.2 217.6 174.4 223.5 174.4C229.3 174.4 234.4 173.2 238.9 170.9C243.4 168.6 247.1 165.5 250.2 161.5C253.3 157.5 255.6 153.1 257.1 148C258.6 142.9 259.4 137.6 259.4 132C259.4 126.6 258.6 121.3 257.1 116.2C255.6 111.1 253.3 106.6 250.2 102.7C247.1 98.8 243.4 95.6 238.9 93.3C234.4 90.9 229.3 89.7 223.5 89.7C217.6 89.7 212.4 90.9 207.9 93.3C203.4 95.7 199.7 98.8 196.6 102.7C193.5 106.6 191.2 111.1 189.7 116.2C188.2 121.3 187.4 126.6 187.4 132C187.4 137.6 188.2 142.9 189.7 148Z" fill="white"/>
<path d="M274.8 114.8C276.5 109.3 279 104.5 282.4 100.3C285.7 96.1 289.9 92.7 294.7 90.2C299.6 87.7 305.2 86.4 311.7 86.4C318 86.4 323.7 87.7 328.5 90.2C333.4 92.7 337.5 96.1 340.8 100.3C344.1 104.5 346.7 109.3 348.4 114.8C350.1 120.3 351 126 351 132.1C351 138.1 350.1 143.9 348.4 149.4C346.7 154.9 344.2 159.7 340.8 163.9C337.5 168.1 333.3 171.4 328.5 173.9C323.6 176.4 318 177.6 311.5 177.6C305.2 177.6 299.5 176.4 294.7 173.9C289.8 171.4 285.7 168.1 282.4 163.9C279.1 159.7 276.5 154.9 274.8 149.4C273.1 143.9 272.2 138.2 272.2 132.1C272.3 126 273.1 120.3 274.8 114.8ZM278 148C279.5 153.1 281.8 157.6 284.9 161.5C288 165.4 291.7 168.5 296.2 170.9C300.7 173.2 305.9 174.4 311.8 174.4C317.6 174.4 322.7 173.2 327.2 170.9C331.7 168.6 335.4 165.5 338.5 161.5C341.6 157.5 343.9 153.1 345.4 148C346.9 142.9 347.7 137.6 347.7 132C347.7 126.6 346.9 121.3 345.4 116.2C343.9 111.1 341.6 106.6 338.5 102.7C335.4 98.8 331.7 95.6 327.2 93.3C322.7 90.9 317.6 89.7 311.8 89.7C305.9 89.7 300.7 90.9 296.2 93.3C291.7 95.7 288 98.8 284.9 102.7C281.8 106.6 279.5 111.1 278 116.2C276.5 121.3 275.7 126.6 275.7 132C275.7 137.6 276.4 142.9 278 148Z" fill="white"/>
<path d="M368.5 54.4V175.8H365.1V54.4H368.5Z" fill="white"/>
<path d="M442.1 103C440.7 99.9 438.8 97.4 436.3 95.4C433.8 93.4 430.8 92 427.4 91.1C423.9 90.2 420.1 89.7 415.9 89.7C409.8 89.7 405 90.5 401.4 92.2C397.9 93.8 395.3 95.7 393.6 97.8C391.9 99.9 390.8 102 390.4 104C389.9 106 389.7 107.5 389.7 108.2C389.7 112.5 390.6 115.8 392.3 118.1C394.1 120.4 396.4 122.2 399.4 123.5C402.5 124.7 405.8 125.8 409.3 126.7C412.9 127.6 417 128.7 421.8 129.9C425.2 130.8 428.6 131.7 431.9 132.7C435.2 133.7 438.2 135 440.9 136.7C443.6 138.4 445.7 140.6 447.4 143.2C449 145.8 449.9 149.2 449.9 153.4C449.9 157.8 449 161.6 447.1 164.6C445.2 167.7 442.8 170.2 439.8 172.1C436.8 174 433.4 175.4 429.6 176.3C425.8 177.2 422 177.6 418.3 177.6C406.6 177.6 397.8 175.1 391.9 169.9C386 164.8 383 156.8 383 145.8H386.4C386.4 155.7 389.1 162.9 394.6 167.5C400.1 172.1 408 174.4 418.3 174.4C421.5 174.4 424.7 174 428.1 173.3C431.4 172.6 434.5 171.4 437.2 169.7C439.9 168.1 442.2 165.9 443.9 163.3C445.7 160.7 446.5 157.5 446.5 153.8C446.5 149.9 445.6 146.8 443.9 144.4C442.1 142 439.9 140.1 437.1 138.5C434.3 137 431.1 135.8 427.5 134.8C423.9 133.9 420.2 133 416.5 132.1C412.3 131.1 408.6 130.1 405.5 129.2C402.3 128.3 399.5 127.3 397 126.1C393.4 124.5 390.7 122.3 389 119.5C387.3 116.7 386.5 112.9 386.5 108.1C386.5 105.7 387 103.2 388 100.6C389 98 390.7 95.6 393.1 93.5C395.5 91.3 398.5 89.6 402.3 88.2C406.1 86.8 410.6 86.2 416.1 86.2C425.8 86.2 433.6 88.4 439.2 92.8C444.9 97.2 447.7 104.3 447.7 114H444.3C444.1 109.8 443.5 106 442.1 103Z" fill="white"/>
<path d="M469.3 54.4V110H469.6C470.4 106.6 471.7 103.5 473.4 100.7C475.2 97.9 477.4 95.4 480 93.2C482.7 91 485.8 89.4 489.3 88.2C492.8 87 496.7 86.4 501 86.4C505.5 86.4 509.7 87.1 513.5 88.4C517.3 89.8 520.6 91.8 523.4 94.4C526.2 97.1 528.3 100.4 529.9 104.3C531.4 108.2 532.2 112.7 532.2 117.8V175.8H528.8V118.3C528.8 113.2 528.1 108.9 526.6 105.3C525.1 101.7 523.1 98.8 520.6 96.5C518.1 94.2 515.1 92.5 511.8 91.4C508.5 90.3 504.9 89.8 501.2 89.8C496 89.8 491.4 90.8 487.4 92.8C483.4 94.8 480.1 97.4 477.5 100.8C474.8 104.1 472.8 108 471.5 112.4C470.1 116.8 469.5 121.5 469.5 126.3V175.8H466.1V54.4H469.3Z" fill="white"/>
<path d="M553.3 103.9C554.8 100.3 556.9 97.2 559.7 94.6C562.5 92 565.9 90 569.9 88.5C573.9 87 578.7 86.3 584.1 86.3C588 86.3 591.6 86.7 595.1 87.5C598.6 88.3 601.6 89.7 604.2 91.7C606.8 93.7 608.9 96.3 610.5 99.4C612.1 102.6 612.9 106.5 613 111.3V166.9C613 168.6 613.3 169.8 614 170.6C614.7 171.4 615.6 171.9 616.7 172.2C617.8 172.5 619.1 172.6 620.4 172.5C621.7 172.4 622.9 172.4 624.1 172.2V175.6H619C616.5 175.6 614.3 175 612.5 173.8C610.6 172.6 609.7 170.4 609.7 167.1V155.7H609.4C608.5 158.5 607 161.3 605.1 163.9C603.1 166.5 600.6 168.8 597.6 170.9C594.6 172.9 591.2 174.6 587.3 175.7C583.4 176.9 579.3 177.5 574.7 177.5C565.9 177.5 558.8 175.5 553.5 171.6C548.2 167.7 545.5 161.8 545.5 154C545.5 148.6 546.4 144.2 548.1 140.9C549.9 137.6 552.2 135 555 133.2C557.8 131.3 561.1 130 564.7 129.3C568.3 128.6 572 128.1 575.6 127.9C581.6 127.6 586.8 127.2 591.1 127C595.4 126.7 598.9 126.2 601.7 125.3C604.5 124.5 606.5 123.1 607.8 121.4C609.1 119.6 609.8 117.1 609.8 113.8C609.8 111.2 609.6 108.5 609.1 105.6C608.6 102.8 607.5 100.2 605.8 97.8C604 95.4 601.5 93.5 598.1 91.9C594.7 90.4 590.1 89.6 584.3 89.6C575.1 89.6 568 91.8 562.9 96.3C557.8 100.8 555 107.1 554.4 115.3H551C551 111.3 551.8 107.5 553.3 103.9ZM609.2 124.4C608.1 126 606.3 127.2 603.9 128.1C601.5 128.9 598.8 129.6 595.7 130.1C592.6 130.6 589.3 130.8 585.8 131C582.2 131.1 578.7 131.3 575.3 131.5C571.9 131.7 568.6 132.2 565.4 132.8C562.2 133.4 559.3 134.6 556.8 136.2C554.3 137.8 552.3 140.1 550.9 143C549.4 145.9 548.7 149.7 548.7 154.3C548.7 156.8 549.1 159.3 550 161.7C550.9 164.1 552.3 166.3 554.3 168.2C556.3 170.1 559 171.6 562.2 172.8C565.4 174 569.4 174.6 574.2 174.6C579.9 174.6 584.9 173.6 589.3 171.7C593.7 169.8 597.4 167.3 600.4 164.1C603.4 161 605.7 157.4 607.2 153.3C608.7 149.2 609.5 145 609.5 140.7V124.6H609.2V124.4Z" fill="white"/>
<path d="M632.7 175.7V88.4001H636.1V110H636.4C637.2 106.7 638.4 103.6 640.1 100.7C641.8 97.8001 644.1 95.3001 646.9 93.1001C649.7 90.9001 653.1 89.2001 657 88.0001C660.9 86.8001 665.5 86.2001 670.7 86.3001V89.7001C664.7 89.4001 659.5 90.2001 655.1 92.2001C650.7 94.2001 647.1 96.9001 644.3 100.4C641.5 103.9 639.4 107.9 638 112.4C636.6 116.9 636 121.6 636 126.3V175.8H632.7V175.7Z" fill="white"/>
<path d="M677.1 149.1C678.4 154.1 680.4 158.5 683.1 162.3C685.8 166 689.3 169 693.6 171.1C697.9 173.3 703.2 174.3 709.4 174.3C718.6 174.3 726.2 171.9 732.3 167.1C738.4 162.3 742.1 155.1 743.6 145.4H747C745.8 155.6 741.7 163.5 734.9 169.1C728.1 174.7 719.7 177.5 709.7 177.5C702.9 177.6 697.1 176.5 692.3 174.3C687.5 172 683.5 168.8 680.5 164.7C677.4 160.6 675.2 155.7 673.7 150.1C672.2 144.5 671.5 138.5 671.5 132C671.5 124.7 672.6 118.3 674.7 112.6C676.9 106.9 679.7 102.1 683.2 98.2C686.7 94.3 690.8 91.3 695.4 89.3C700 87.3 704.8 86.2 709.7 86.2C716.5 86.2 722.4 87.5 727.3 90.1C732.2 92.7 736.3 96.2 739.4 100.5C742.5 104.8 744.8 109.7 746.2 115.3C747.6 120.9 748.2 126.6 748 132.6H675C675.1 138.6 675.8 144.1 677.1 149.1ZM742.5 114.1C741 109.3 738.8 105.1 736 101.4C733.1 97.8 729.5 94.9 725.2 92.8C720.9 90.7 715.9 89.7 710.2 89.7C705.4 89.7 701 90.6 696.9 92.4C692.8 94.2 689.1 96.8 686 100.3C682.9 103.8 680.4 107.9 678.4 112.8C676.5 117.7 675.3 123.2 675 129.3H744.7C744.7 124 744 118.9 742.5 114.1Z" fill="white"/>
</g>
<defs>
<clipPath id="clip0_124_93">
<rect width="783.5" height="245.5" fill="white"/>
</clipPath>
</defs>
</svg>
